<svg width="63" height="50" viewBox="0 0 63 50" fill="none" xmlns="http://www.w3.org/2000/svg">
<path d="M36.7206 21.7545C35.3375 19.6089 34.6595 17.0559 34.6595 14.0956C34.6595 9.88593 35.9884 6.46388 38.619 3.88376C41.2497 1.27648 44.6397 -1.60511e-06 48.762 -1.24473e-06C52.8842 -8.84351e-07 56.2742 1.3308 58.9591 3.96524C61.644 6.62683 63 9.99457 63 14.1228C63 16.0782 62.7559 18.0337 62.2678 20.0163C61.7796 21.9718 60.6948 24.9049 59.0405 28.843L50.5248 50L35.9884 50L42.443 26.616C40.0022 25.5296 38.0766 23.9272 36.7206 21.7545ZM2.06113 21.7545C0.705123 19.6089 2.88006e-06 17.0559 3.13886e-06 14.0956C3.50688e-06 9.88593 1.32889 6.46388 3.95954 3.88376C6.59019 1.27648 9.9802 -4.63514e-06 14.1025 -4.27476e-06C18.2247 -3.91438e-06 21.6147 1.3308 24.2996 3.96523C26.9845 6.59967 28.3405 9.99456 28.3405 14.1228C28.3405 16.0782 28.0964 18.0337 27.6083 20.0163C27.1201 21.9718 26.0353 24.9049 24.381 28.843L15.8653 50L1.32888 50L7.78347 26.616C5.34266 25.5296 3.44425 23.9272 2.06113 21.7545Z" fill="#DA8824"/>
</svg>
