<svg width="63" height="50" viewBox="0 0 63 50" fill="none" xmlns="http://www.w3.org/2000/svg">
<path d="M26.2794 28.2455C27.6625 30.3911 28.3405 32.9441 28.3405 35.9044C28.3405 40.1141 27.0116 43.5361 24.381 46.1162C21.7503 48.7235 18.3603 50 14.2381 50C10.1158 50 6.72579 48.6692 4.0409 46.0348C1.35601 43.3732 0 40.0054 0 35.8772C0 33.9218 0.244081 31.9663 0.732243 29.9837C1.2204 28.0282 2.30521 25.0951 3.95954 21.157L12.4752 0H27.0116L20.557 23.384C22.9978 24.4704 24.9234 26.0728 26.2794 28.2455ZM60.9389 28.2455C62.2949 30.3911 63 32.9441 63 35.9044C63 40.1141 61.6711 43.5361 59.0405 46.1162C56.4098 48.7235 53.0198 50 48.8975 50C44.7753 50 41.3853 48.6692 38.7004 46.0348C36.0155 43.4003 34.6595 40.0054 34.6595 35.8772C34.6595 33.9218 34.9036 31.9663 35.3917 29.9837C35.8799 28.0282 36.9647 25.0951 38.619 21.157L47.1347 0H61.6711L55.2165 23.384C57.6573 24.4704 59.5557 26.0728 60.9389 28.2455Z" fill="#DA8824"/>
</svg>
