<svg width="28" height="36" viewBox="0 0 28 36" fill="none" xmlns="http://www.w3.org/2000/svg">
<path d="M14 0C17.7117 0.00446589 21.2701 1.49594 23.8946 4.14727C26.5192 6.7986 27.9956 10.3933 28 14.1428C28 26.2441 15.2727 35.3847 14.7309 35.7677C14.5165 35.9189 14.2614 36 14 36C13.7386 36 13.4835 35.9189 13.2691 35.7677C12.7273 35.3847 0 26.2441 0 14.1428C0.00442123 10.3933 1.48084 6.7986 4.10539 4.14727C6.72994 1.49594 10.2883 0.00446589 14 0ZM13.999 9.00046C12.9922 9.00046 12.0079 9.30209 11.1707 9.86719C10.3335 10.4323 9.68098 11.2355 9.29566 12.1752C8.91034 13.115 8.80952 14.149 9.00596 15.1466C9.20239 16.1442 9.68725 17.0606 10.3992 17.7799C11.1112 18.4991 12.0183 18.9889 13.0059 19.1873C13.9934 19.3858 15.017 19.2839 15.9473 18.8947C16.8775 18.5054 17.6726 17.8463 18.232 17.0005C18.7914 16.1548 19.09 15.1605 19.09 14.1433C19.09 12.7793 18.5536 11.4712 17.5989 10.5068C16.6441 9.5423 15.3492 9.00046 13.999 9.00046Z" fill="#DA8824"/>
</svg>
